<svg width="37" height="38" viewBox="0 0 37 38" fill="none" xmlns="http://www.w3.org/2000/svg">
<path d="M29.2917 20.1875H7.70834C7.40169 20.1875 7.10759 20.0624 6.89075 19.8396C6.67392 19.617 6.55209 19.3149 6.55209 19C6.55209 18.6851 6.67392 18.383 6.89075 18.1604C7.10759 17.9376 7.40169 17.8125 7.70834 17.8125H29.2917C29.5983 17.8125 29.8925 17.9376 30.1092 18.1604C30.3261 18.383 30.4479 18.6851 30.4479 19C30.4479 19.3149 30.3261 19.617 30.1092 19.8396C29.8925 20.0624 29.5983 20.1875 29.2917 20.1875Z" fill="black"/>
<path d="M29.2917 13.0625H7.70834C7.40169 13.0625 7.10759 12.9374 6.89075 12.7147C6.67392 12.492 6.55209 12.1899 6.55209 11.875C6.55209 11.5601 6.67392 11.258 6.89075 11.0353C7.10759 10.8126 7.40169 10.6875 7.70834 10.6875H29.2917C29.5983 10.6875 29.8925 10.8126 30.1092 11.0353C30.3261 11.258 30.4479 11.5601 30.4479 11.875C30.4479 12.1899 30.3261 12.492 30.1092 12.7147C29.8925 12.9374 29.5983 13.0625 29.2917 13.0625Z" fill="black"/>
<path d="M29.2917 27.3125H7.70834C7.40169 27.3125 7.10759 27.1874 6.89075 26.9646C6.67392 26.742 6.55209 26.4399 6.55209 26.125C6.55209 25.8101 6.67392 25.508 6.89075 25.2854C7.10759 25.0626 7.40169 24.9375 7.70834 24.9375H29.2917C29.5983 24.9375 29.8925 25.0626 30.1092 25.2854C30.3261 25.508 30.4479 25.8101 30.4479 26.125C30.4479 26.4399 30.3261 26.742 30.1092 26.9646C29.8925 27.1874 29.5983 27.3125 29.2917 27.3125Z" fill="black"/>
</svg>
