<svg width="28" height="29" viewBox="0 0 28 29" fill="none" xmlns="http://www.w3.org/2000/svg">
<path fill-rule="evenodd" clip-rule="evenodd" d="M13.75 22C17.8921 22 21.25 18.6421 21.25 14.5C21.25 10.3579 17.8921 7 13.75 7C9.60786 7 6.25 10.3579 6.25 14.5C6.25 18.6421 9.60786 22 13.75 22ZM13.75 19.5C16.5114 19.5 18.75 17.2614 18.75 14.5C18.75 11.7386 16.5114 9.5 13.75 9.5C10.9886 9.5 8.75 11.7386 8.75 14.5C8.75 17.2614 10.9886 19.5 13.75 19.5Z" fill="#0F0F0F"/>
<path d="M21.25 5.75C20.5596 5.75 20 6.30965 20 7C20 7.69035 20.5596 8.25 21.25 8.25C21.9404 8.25 22.5 7.69035 22.5 7C22.5 6.30965 21.9404 5.75 21.25 5.75Z" fill="#0F0F0F"/>
<path fill-rule="evenodd" clip-rule="evenodd" d="M0.81745 4.84508C0 6.44941 0 8.54961 0 12.75V16.25C0 20.4504 0 22.5506 0.81745 24.1549C1.5365 25.5661 2.68385 26.7135 4.09508 27.4325C5.69941 28.25 7.79961 28.25 12 28.25H15.5C19.7004 28.25 21.8006 28.25 23.4049 27.4325C24.8161 26.7135 25.9635 25.5661 26.6825 24.1549C27.5 22.5506 27.5 20.4504 27.5 16.25V12.75C27.5 8.54961 27.5 6.44941 26.6825 4.84508C25.9635 3.43385 24.8161 2.2865 23.4049 1.56745C21.8006 0.75 19.7004 0.75 15.5 0.75H12C7.79961 0.75 5.69941 0.75 4.09508 1.56745C2.68385 2.2865 1.5365 3.43385 0.81745 4.84508ZM15.5 3.25H12C9.85855 3.25 8.40281 3.25195 7.2776 3.34387C6.18155 3.43342 5.62105 3.59574 5.23005 3.79496C4.28924 4.27434 3.52434 5.03924 3.04496 5.98005C2.84574 6.37105 2.68342 6.93155 2.59387 8.0276C2.50195 9.15281 2.5 10.6086 2.5 12.75V16.25C2.5 18.3915 2.50195 19.8471 2.59387 20.9724C2.68342 22.0685 2.84574 22.629 3.04496 23.02C3.52434 23.9607 4.28924 24.7256 5.23005 25.205C5.62105 25.4042 6.18155 25.5666 7.2776 25.6561C8.40281 25.748 9.85855 25.75 12 25.75H15.5C17.6415 25.75 19.0971 25.748 20.2224 25.6561C21.3185 25.5666 21.879 25.4042 22.27 25.205C23.2107 24.7256 23.9756 23.9607 24.455 23.02C24.6542 22.629 24.8166 22.0685 24.9061 20.9724C24.998 19.8471 25 18.3915 25 16.25V12.75C25 10.6086 24.998 9.15281 24.9061 8.0276C24.8166 6.93155 24.6542 6.37105 24.455 5.98005C23.9756 5.03924 23.2107 4.27434 22.27 3.79496C21.879 3.59574 21.3185 3.43342 20.2224 3.34387C19.0971 3.25195 17.6415 3.25 15.5 3.25Z" fill="#0F0F0F"/>
</svg>
