<svg width="26" height="21" viewBox="0 0 26 21" fill="none" xmlns="http://www.w3.org/2000/svg">
<path d="M24.5 5.75L20.049 8.22277C17.5675 9.60137 16.3268 10.2907 15.0128 10.561C13.8498 10.8001 12.6502 10.8001 11.4872 10.561C10.1733 10.2907 8.93254 9.60137 6.451 8.22277L2 5.75M6 19.5H20.5C21.9001 19.5 22.6003 19.5 23.135 19.2275C23.6054 18.9879 23.9879 18.6054 24.2275 18.135C24.5 17.6003 24.5 16.9001 24.5 15.5V6C24.5 4.59987 24.5 3.8998 24.2275 3.36503C23.9879 2.89461 23.6054 2.51216 23.135 2.27249C22.6003 2 21.9001 2 20.5 2H6C4.59987 2 3.8998 2 3.36503 2.27249C2.89461 2.51216 2.51216 2.89461 2.27249 3.36503C2 3.8998 2 4.59986 2 6V15.5C2 16.9001 2 17.6003 2.27249 18.135C2.51216 18.6054 2.89461 18.9879 3.36503 19.2275C3.8998 19.5 4.59986 19.5 6 19.5Z" stroke="black" stroke-width="3" stroke-linecap="round" stroke-linejoin="round"/>
</svg>
