<svg width="25" height="25" viewBox="0 0 25 25" fill="none" xmlns="http://www.w3.org/2000/svg">
<path d="M9.43375 2.05652L10.4478 3.8736C11.363 5.51342 10.9956 7.66458 9.55422 9.10596C9.55422 9.10596 7.80606 10.8544 10.9758 14.0243C14.1445 17.193 15.8941 15.4458 15.8941 15.4458C17.3355 14.0044 19.4866 13.6371 21.1264 14.5522L22.9434 15.5663C25.4197 16.9482 25.712 20.4207 23.5356 22.5972C22.2278 23.9051 20.6256 24.9227 18.8545 24.9897C15.8731 25.1029 10.8098 24.3483 5.73078 19.2693C0.651768 14.1902 -0.102794 9.12693 0.0102376 6.14547C0.0773782 4.37439 1.095 2.77224 2.40283 1.46443C4.57931 -0.712064 8.05183 -0.419625 9.43375 2.05652Z" fill="#1C274C"/>
</svg>
